<svg width="172" height="172" viewBox="0 0 172 172" fill="none" xmlns="http://www.w3.org/2000/svg">
<circle cx="86" cy="86" r="62" fill="#FBC5C6"/>
<circle cx="85.4824" cy="86.5171" r="54.25" fill="#FF8888"/>
<path d="M39.5 86C39.5 60.3188 60.3188 39.5 86 39.5C111.681 39.5 132.5 60.3188 132.5 86C132.5 111.681 111.681 132.5 86 132.5C60.3188 132.5 39.5 111.681 39.5 86Z" fill="#B33639"/>
<path fill-rule="evenodd" clip-rule="evenodd" d="M102.439 76.9207C103.952 75.4074 103.952 72.9539 102.439 71.4406C100.926 69.9273 98.4721 69.9273 96.9588 71.4406L85.9987 82.4007L75.0379 71.4399C73.5247 69.9267 71.0711 69.9267 69.5579 71.4399C68.0446 72.9532 68.0446 75.4067 69.5579 76.92L80.5186 87.8808L69.5584 98.841C68.0452 100.354 68.0452 102.808 69.5584 104.321C71.0717 105.834 73.5252 105.834 75.0385 104.321L85.9987 93.3609L96.9582 104.32C98.4715 105.834 100.925 105.834 102.438 104.32C103.952 102.807 103.952 100.354 102.438 98.8403L91.4788 87.8808L102.439 76.9207Z" fill="white"/>
</svg>
